<svg xmlns="http://www.w3.org/2000/svg" width="720" height="397" viewBox="0 0 720 397">
<rect width="100%" height="100%" fill="#ffffff"/>
<style>text { font-family: "Times New Roman", Times, serif; }</style>
<line x1="78.00" y1="304.00" x2="692.00" y2="304.00" stroke="#111827" stroke-width="1.25"/><line x1="78.00" y1="28.00" x2="78.00" y2="304.00" stroke="#111827" stroke-width="1.25"/><text x="385.00" y="350.00" text-anchor="middle" font-size="18" fill="#111827">VO delay (ms)</text><text x="36.00" y="166.00" text-anchor="middle" font-size="18" fill="#111827" transform="rotate(-90 36.00 166.00)">CDF</text><text x="78.00" y="324.00" text-anchor="middle" font-size="16" fill="#6b7280">0</text><line x1="282.67" y1="28.00" x2="282.67" y2="304.00" stroke="#e5e7eb" stroke-width="0.6"/><text x="282.67" y="324.00" text-anchor="middle" font-size="16" fill="#6b7280">1</text><line x1="487.33" y1="28.00" x2="487.33" y2="304.00" stroke="#e5e7eb" stroke-width="0.6"/><text x="487.33" y="324.00" text-anchor="middle" font-size="16" fill="#6b7280">2</text><text x="692.00" y="324.00" text-anchor="middle" font-size="16" fill="#6b7280">3</text><text x="68.00" y="307.00" text-anchor="end" font-size="16" fill="#6b7280">0</text><line x1="78.00" y1="248.80" x2="692.00" y2="248.80" stroke="#e5e7eb" stroke-width="0.6"/><text x="68.00" y="251.80" text-anchor="end" font-size="16" fill="#6b7280">0.2</text><line x1="78.00" y1="193.60" x2="692.00" y2="193.60" stroke="#e5e7eb" stroke-width="0.6"/><text x="68.00" y="196.60" text-anchor="end" font-size="16" fill="#6b7280">0.4</text><line x1="78.00" y1="138.40" x2="692.00" y2="138.40" stroke="#e5e7eb" stroke-width="0.6"/><text x="68.00" y="141.40" text-anchor="end" font-size="16" fill="#6b7280">0.6</text><line x1="78.00" y1="83.20" x2="692.00" y2="83.20" stroke="#e5e7eb" stroke-width="0.6"/><text x="68.00" y="86.20" text-anchor="end" font-size="16" fill="#6b7280">0.8</text><text x="68.00" y="31.00" text-anchor="end" font-size="16" fill="#6b7280">1</text><polyline points="130.40,302.16 130.40,300.32 130.40,298.48 130.40,296.64 130.40,294.80 130.41,292.96 130.41,291.12 130.41,289.28 130.41,287.44 130.41,285.60 130.42,283.76 130.42,281.92 130.42,280.08 130.43,278.24 130.43,276.40 130.43,274.56 130.43,272.72 130.43,270.88 130.43,269.04 130.44,267.20 130.44,265.36 130.45,263.52 130.45,261.68 130.45,259.84 130.45,258.00 130.45,256.16 130.46,254.32 130.46,252.48 130.46,250.64 130.46,248.80 130.47,246.96 130.47,245.12 130.47,243.28 130.48,241.44 130.48,239.60 130.48,237.76 130.48,235.92 130.48,234.08 130.49,232.24 130.49,230.40 130.50,228.56 130.50,226.72 130.50,224.88 130.50,223.04 130.50,221.20 130.50,219.36 130.51,217.52 130.51,215.68 130.52,213.84 130.52,212.00 130.52,210.16 130.52,208.32 130.53,206.48 130.53,204.64 130.53,202.80 130.54,200.96 130.54,199.12 130.54,197.28 130.54,195.44 130.54,193.60 130.55,191.76 130.55,189.92 130.55,188.08 130.56,186.24 130.57,184.40 130.57,182.56 130.57,180.72 130.58,178.88 130.58,177.04 130.58,175.20 130.59,173.36 130.59,171.52 130.60,169.68 130.60,167.84 130.61,166.00 131.07,164.16 133.33,162.32 135.06,160.48 136.05,158.64 137.85,156.80 138.75,154.96 139.53,153.12 141.70,151.28 143.00,149.44 144.79,147.60 145.70,145.76 147.82,143.92 149.31,142.08 152.07,140.24 155.59,138.40 157.46,136.56 160.00,134.72 161.91,132.88 163.49,131.04 165.34,129.20 168.22,127.36 170.64,125.52 172.95,123.68 174.48,121.84 175.95,120.00 178.20,118.16 181.09,116.32 182.91,114.48 184.23,112.64 185.91,110.80 188.25,108.96 189.61,107.12 191.42,105.28 194.26,103.44 195.45,101.60 196.80,99.76 198.07,97.92 200.75,96.08 204.29,94.24 206.52,92.40 208.77,90.56 211.87,88.72 213.94,86.88 215.25,85.04 218.58,83.20 222.25,81.36 226.03,79.52 229.99,77.68 233.54,75.84 237.00,74.00 239.82,72.16 242.86,70.32 246.50,68.48 250.37,66.64 255.05,64.80 258.54,62.96 261.74,61.12 265.78,59.28 271.01,57.44 276.06,55.60 280.58,53.76 284.91,51.92 289.21,50.08 293.59,48.24 296.32,46.40 301.89,44.56 308.25,42.72 317.95,40.88 338.37,39.04 350.93,37.20 361.87,35.36 387.79,33.52 420.48,31.68 448.18,29.84 624.97,28.00" fill="none" stroke="#4c78a8" stroke-width="2.50"/><polyline points="130.40,302.16 130.40,300.32 130.40,298.48 130.40,296.64 130.40,294.80 130.40,292.96 130.40,291.12 130.40,289.28 130.40,287.44 130.40,285.60 130.40,283.76 130.40,281.92 130.41,280.08 130.41,278.24 130.41,276.40 130.41,274.56 130.41,272.72 130.41,270.88 130.41,269.04 130.41,267.20 130.41,265.36 130.41,263.52 130.41,261.68 130.42,259.84 130.42,258.00 130.42,256.16 130.42,254.32 130.42,252.48 130.42,250.64 130.42,248.80 130.43,246.96 130.43,245.12 130.43,243.28 130.43,241.44 130.43,239.60 130.43,237.76 130.43,235.92 130.43,234.08 130.43,232.24 130.43,230.40 130.44,228.56 130.44,226.72 130.44,224.88 130.44,223.04 130.44,221.20 130.45,219.36 130.45,217.52 130.45,215.68 130.45,213.84 130.45,212.00 130.45,210.16 130.45,208.32 130.45,206.48 130.46,204.64 130.46,202.80 130.46,200.96 130.46,199.12 130.46,197.28 130.46,195.44 130.46,193.60 130.46,191.76 130.47,189.92 130.47,188.08 130.47,186.24 130.47,184.40 130.47,182.56 130.47,180.72 130.48,178.88 130.48,177.04 130.48,175.20 130.48,173.36 130.48,171.52 130.48,169.68 130.48,167.84 130.48,166.00 130.49,164.16 130.49,162.32 130.49,160.48 130.49,158.64 130.50,156.80 130.50,154.96 130.50,153.12 130.50,151.28 130.50,149.44 130.50,147.60 130.50,145.76 130.50,143.92 130.51,142.08 130.51,140.24 130.51,138.40 130.51,136.56 130.52,134.72 130.52,132.88 130.52,131.04 130.52,129.20 130.52,127.36 130.53,125.52 130.53,123.68 130.53,121.84 130.53,120.00 130.53,118.16 130.54,116.32 130.54,114.48 130.54,112.64 130.54,110.80 130.54,108.96 130.55,107.12 130.55,105.28 130.55,103.44 130.55,101.60 130.55,99.76 130.56,97.92 130.56,96.08 130.56,94.24 130.57,92.40 130.57,90.56 130.57,88.72 130.58,86.88 130.58,85.04 130.58,83.20 130.58,81.36 130.58,79.52 130.59,77.68 130.59,75.84 130.59,74.00 130.60,72.16 130.60,70.32 130.60,68.48 130.60,66.64 130.60,64.80 130.61,62.96 130.86,61.12 136.05,59.28 140.65,57.44 143.75,55.60 148.69,53.76 153.53,51.92 157.31,50.08 160.80,48.24 164.84,46.40 168.26,44.56 175.22,42.72 176.84,40.88 179.97,39.04 186.78,37.20 190.35,35.36 196.53,33.52 219.99,31.68 284.86,29.84 464.96,28.00" fill="none" stroke="#f58518" stroke-width="2.50" stroke-dasharray="7,3"/><polyline points="130.40,302.16 130.40,300.32 130.40,298.48 130.40,296.64 130.40,294.80 130.41,292.96 130.41,291.12 130.41,289.28 130.41,287.44 130.41,285.60 130.42,283.76 130.42,281.92 130.42,280.08 130.43,278.24 130.43,276.40 130.43,274.56 130.43,272.72 130.43,270.88 130.43,269.04 130.43,267.20 130.44,265.36 130.45,263.52 130.45,261.68 130.45,259.84 130.45,258.00 130.46,256.16 130.46,254.32 130.46,252.48 130.46,250.64 130.47,248.80 130.47,246.96 130.47,245.12 130.47,243.28 130.48,241.44 130.48,239.60 130.48,237.76 130.48,235.92 130.48,234.08 130.49,232.24 130.49,230.40 130.49,228.56 130.50,226.72 130.50,224.88 130.50,223.04 130.50,221.20 130.50,219.36 130.51,217.52 130.51,215.68 130.52,213.84 130.52,212.00 130.52,210.16 130.52,208.32 130.53,206.48 130.53,204.64 130.53,202.80 130.54,200.96 130.54,199.12 130.54,197.28 130.54,195.44 130.55,193.60 130.55,191.76 130.55,189.92 130.56,188.08 130.57,186.24 130.57,184.40 130.57,182.56 130.58,180.72 130.58,178.88 130.58,177.04 130.59,175.20 130.60,173.36 130.60,171.52 130.60,169.68 130.75,167.84 133.71,166.00 135.06,164.16 136.66,162.32 138.35,160.48 141.40,158.64 142.56,156.80 143.41,154.96 144.87,153.12 148.25,151.28 149.20,149.44 150.65,147.60 151.82,145.76 153.33,143.92 156.68,142.08 158.39,140.24 160.31,138.40 162.42,136.56 164.06,134.72 165.66,132.88 167.43,131.04 168.65,129.20 170.78,127.36 173.11,125.52 174.14,123.68 177.09,121.84 178.65,120.00 180.80,118.16 183.07,116.32 185.09,114.48 187.62,112.64 189.57,110.80 190.72,108.96 192.53,107.12 194.21,105.28 197.44,103.44 199.75,101.60 202.18,99.76 205.72,97.92 207.29,96.08 208.15,94.24 211.43,92.40 213.97,90.56 217.10,88.72 219.55,86.88 220.97,85.04 222.87,83.20 225.42,81.36 228.52,79.52 230.39,77.68 234.21,75.84 238.21,74.00 242.11,72.16 247.23,70.32 250.09,68.48 255.87,66.64 258.78,64.80 264.04,62.96 266.48,61.12 271.00,59.28 273.57,57.44 277.68,55.60 281.65,53.76 283.88,51.92 287.22,50.08 292.86,48.24 296.15,46.40 303.71,44.56 308.49,42.72 322.26,40.88 345.65,39.04 364.68,37.20 388.75,35.36 409.11,33.52 424.24,31.68 478.99,29.84 692.00,28.00" fill="none" stroke="#54a24b" stroke-width="2.50" stroke-dasharray="3,3"/><polyline points="130.40,302.16 130.40,300.32 130.40,298.48 130.40,296.64 130.40,294.80 130.40,292.96 130.41,291.12 130.41,289.28 130.41,287.44 130.41,285.60 130.41,283.76 130.41,281.92 130.42,280.08 130.42,278.24 130.42,276.40 130.43,274.56 130.43,272.72 130.43,270.88 130.43,269.04 130.43,267.20 130.43,265.36 130.43,263.52 130.43,261.68 130.44,259.84 130.44,258.00 130.44,256.16 130.45,254.32 130.45,252.48 130.45,250.64 130.45,248.80 130.45,246.96 130.45,245.12 130.46,243.28 130.46,241.44 130.46,239.60 130.46,237.76 130.46,235.92 130.47,234.08 130.47,232.24 130.47,230.40 130.47,228.56 130.47,226.72 130.48,224.88 130.48,223.04 130.48,221.20 130.48,219.36 130.48,217.52 130.48,215.68 130.49,213.84 130.49,212.00 130.50,210.16 130.50,208.32 130.50,206.48 130.50,204.64 130.50,202.80 130.50,200.96 130.51,199.12 130.51,197.28 130.52,195.44 130.52,193.60 130.52,191.76 130.52,189.92 130.53,188.08 130.53,186.24 130.54,184.40 130.54,182.56 130.54,180.72 130.54,178.88 130.55,177.04 130.55,175.20 130.56,173.36 130.56,171.52 130.57,169.68 130.57,167.84 130.58,166.00 130.59,164.16 130.59,162.32 130.60,160.48 130.84,158.64 132.95,156.80 135.31,154.96 136.73,153.12 141.38,151.28 144.73,149.44 148.25,147.60 150.25,145.76 152.98,143.92 156.57,142.08 159.16,140.24 160.64,138.40 164.46,136.56 167.40,134.72 169.72,132.88 172.32,131.04 174.55,129.20 176.59,127.36 179.03,125.52 181.17,123.68 185.12,121.84 187.56,120.00 191.08,118.16 192.28,116.32 195.35,114.48 198.79,112.64 201.86,110.80 205.10,108.96 209.70,107.12 213.32,105.28 215.94,103.44 220.20,101.60 223.99,99.76 228.73,97.92 232.98,96.08 235.32,94.24 238.36,92.40 240.81,90.56 245.06,88.72 251.47,86.88 256.75,85.04 259.87,83.20 267.38,81.36 272.48,79.52 280.55,77.68 287.38,75.84 292.04,74.00 298.65,72.16 304.86,70.32 313.56,68.48 322.74,66.64 329.82,64.80 337.68,62.96 354.11,61.12 362.06,59.28 373.63,57.44 382.22,55.60 388.83,53.76 394.80,51.92 404.07,50.08 415.88,48.24 428.60,46.40 434.45,44.56 444.89,42.72 466.92,40.88 479.13,39.04 498.60,37.20 519.95,35.36 572.34,33.52 612.03,31.68 687.78,29.84 692.00,28.00" fill="none" stroke="#b279a2" stroke-width="2.50" stroke-dasharray="9,4,2,4"/><polyline points="130.40,302.16 130.40,300.32 130.40,298.48 130.40,296.64 130.40,294.80 130.41,292.96 130.41,291.12 130.41,289.28 130.41,287.44 130.41,285.60 130.42,283.76 130.42,281.92 130.43,280.08 130.43,278.24 130.43,276.40 130.43,274.56 130.43,272.72 130.43,270.88 130.44,269.04 130.44,267.20 130.45,265.36 130.45,263.52 130.45,261.68 130.45,259.84 130.46,258.00 130.46,256.16 130.46,254.32 130.46,252.48 130.47,250.64 130.47,248.80 130.47,246.96 130.47,245.12 130.48,243.28 130.48,241.44 130.48,239.60 130.48,237.76 130.49,235.92 130.49,234.08 130.50,232.24 130.50,230.40 130.50,228.56 130.50,226.72 130.50,224.88 130.50,223.04 130.51,221.20 130.51,219.36 130.52,217.52 130.52,215.68 130.52,213.84 130.52,212.00 130.53,210.16 130.53,208.32 130.54,206.48 130.54,204.64 130.54,202.80 130.54,200.96 130.54,199.12 130.55,197.28 130.55,195.44 130.55,193.60 130.56,191.76 130.57,189.92 130.57,188.08 130.57,186.24 130.58,184.40 130.58,182.56 130.59,180.72 130.59,178.88 130.59,177.04 130.60,175.20 130.60,173.36 130.61,171.52 132.26,169.68 136.23,167.84 138.00,166.00 140.20,164.16 141.38,162.32 143.29,160.48 146.18,158.64 148.07,156.80 150.78,154.96 152.10,153.12 153.93,151.28 154.86,149.44 159.48,147.60 162.76,145.76 164.47,143.92 166.80,142.08 169.37,140.24 170.94,138.40 172.58,136.56 176.10,134.72 177.68,132.88 179.17,131.04 181.45,129.20 184.05,127.36 186.69,125.52 188.14,123.68 191.05,121.84 192.37,120.00 195.03,118.16 198.34,116.32 200.42,114.48 202.97,112.64 204.49,110.80 206.55,108.96 208.33,107.12 211.01,105.28 213.76,103.44 216.92,101.60 221.12,99.76 223.62,97.92 227.76,96.08 231.74,94.24 237.69,92.40 239.72,90.56 242.12,88.72 245.18,86.88 248.59,85.04 251.58,83.20 254.38,81.36 259.48,79.52 262.47,77.68 266.72,75.84 269.65,74.00 273.40,72.16 275.41,70.32 278.52,68.48 282.98,66.64 285.62,64.80 287.87,62.96 290.55,61.12 292.99,59.28 297.26,57.44 302.08,55.60 305.49,53.76 313.31,51.92 324.58,50.08 339.10,48.24 358.60,46.40 368.31,44.56 380.51,42.72 393.39,40.88 413.16,39.04 422.21,37.20 434.42,35.36 452.97,33.52 471.39,31.68 548.19,29.84 692.00,28.00" fill="none" stroke="#e45756" stroke-width="2.50" stroke-dasharray="2,2"/><line x1="186.44" y1="365.50" x2="207.44" y2="365.50" stroke="#4c78a8" stroke-width="2.50"/><text x="211.44" y="368.50" text-anchor="start" font-size="14" fill="#111827">EDCA</text><line x1="257.56" y1="365.50" x2="278.56" y2="365.50" stroke="#f58518" stroke-width="2.50" stroke-dasharray="7,3"/><text x="282.56" y="368.50" text-anchor="start" font-size="14" fill="#111827">Emergency</text><line x1="365.08" y1="365.50" x2="386.08" y2="365.50" stroke="#54a24b" stroke-width="2.50" stroke-dasharray="3,3"/><text x="390.08" y="368.50" text-anchor="start" font-size="14" fill="#111827">Guarded</text><line x1="458.04" y1="365.50" x2="479.04" y2="365.50" stroke="#b279a2" stroke-width="2.50" stroke-dasharray="9,4,2,4"/><text x="483.04" y="368.50" text-anchor="start" font-size="14" fill="#111827">DCF</text><line x1="521.88" y1="365.50" x2="542.88" y2="365.50" stroke="#e45756" stroke-width="2.50" stroke-dasharray="2,2"/><text x="546.88" y="368.50" text-anchor="start" font-size="14" fill="#111827">Stable</text>
</svg>
